<?xml version="1.0" standalone="no"?><!DOCTYPE svg PUBLIC "-//W3C//DTD SVG 1.1//EN" "http://www.w3.org/Graphics/SVG/1.1/DTD/svg11.dtd"><svg t="1676093417551" class="icon" viewBox="0 0 1024 1024" version="1.1" xmlns="http://www.w3.org/2000/svg" p-id="2514" xmlns:xlink="http://www.w3.org/1999/xlink" width="200" height="200"><path d="M524.6 183.4c-2.6-0.1-5.3-0.1-7.9-0.1-128.3 0-233.2 106.4-230.2 235.6 1.5 62.8 28.1 119.3 70.1 160v102.6c0 35.5 27 64.6 61.6 68.1v151.2h51.9l46.5 31 46.5-31H615V749.6c34.6-3.4 61.6-32.6 61.6-68.1V578.9c43.3-41.8 70.2-100.5 70.2-165.5 0-124.5-98.8-225.8-222.2-230z m60.5 687.4H448.2v-15H585v15z m0-65.9v15H448.2v-15h136.9z m0-51.6v15H448.2v-15h136.9z m115.3-260.4c-10.5 24.3-25.5 45.9-44.6 64.4l-9.1 8.9v115.3c0 21.2-17.2 38.4-38.4 38.4H425.1c-21.2 0-38.4-17.2-38.4-38.4v-115l-8.8-8.8-0.2-0.2-0.2-0.2c-38.1-36.8-59.7-86.3-61-139.1-0.6-27.4 4.2-54 14.4-79.2 9.8-24.3 24.2-46.2 42.7-65.2 18.5-19 40.2-33.9 64.3-44.3 25-10.8 51.5-16.2 78.8-16.2 2.3 0 4.6 0 6.9 0.1 52 1.8 100.6 23.4 136.9 60.8 36.4 37.5 56.4 87 56.4 139.2-0.1 27.6-5.6 54.4-16.5 79.5zM231.212 263.21l15-25.98 50.747 29.3-15 25.98zM732.112 268.081l50.747-29.3 15 25.98-50.747 29.3zM631.843 178.098l29.3-50.748 25.98 15-29.3 50.748zM500 91.7h30v58.6h-30zM342.626 141.406l25.98-15 29.3 50.747-25.98 15z" p-id="2515" fill="#ffffff"></path></svg>