<?xml version="1.0" standalone="no"?><!DOCTYPE svg PUBLIC "-//W3C//DTD SVG 1.1//EN" "http://www.w3.org/Graphics/SVG/1.1/DTD/svg11.dtd"><svg t="1676093505632" class="icon" viewBox="0 0 1024 1024" version="1.1" xmlns="http://www.w3.org/2000/svg" p-id="3571" xmlns:xlink="http://www.w3.org/1999/xlink" width="200" height="200"><path d="M0 0h1024v1024H0z" fill="#ffffff" fill-opacity="0" p-id="3572"></path><path d="M876.224 780.053333a89.813333 89.813333 0 0 0-43.242667 11.434667l-94.933333-94.933333c58.325333-67.84 93.866667-155.861333 93.866667-252.16 0-213.674667-173.866667-387.498667-387.52-387.498667-213.674667 0-387.498667 173.824-387.498667 387.498667 0 213.696 173.824 387.52 387.498667 387.52 94.208 0 180.608-33.856 247.850666-89.962667l98.688 98.688c-3.413333 9.514667-5.589333 19.626667-5.589333 30.293333 0 50.133333 40.746667 90.88 90.88 90.88 50.133333 0 90.88-40.746667 90.88-90.88 0-50.133333-40.746667-90.88-90.88-90.88zM121.386667 444.373333c0-178.112 144.917333-323.029333 323.029333-323.029333 178.133333 0 323.029333 144.917333 323.029333 323.029333 0 178.133333-144.917333 323.050667-323.029333 323.050667-178.133333 0-323.029333-144.938667-323.029333-323.050667z m754.858666 452.949334a26.432 26.432 0 0 1 0-52.821334 26.432 26.432 0 0 1 0 52.821334z" fill="#ffffff" p-id="3573"></path><path d="M293.461333 281.813333a275.712 275.712 0 0 0-85.269333 200.362667 32.234667 32.234667 0 1 0 64.490667 0 211.882667 211.882667 0 0 1 65.493333-153.898667 32.213333 32.213333 0 1 0-44.714667-46.442666z" fill="#ffffff" p-id="3574"></path></svg>