<?xml version="1.0" standalone="no"?><!DOCTYPE svg PUBLIC "-//W3C//DTD SVG 1.1//EN" "http://www.w3.org/Graphics/SVG/1.1/DTD/svg11.dtd"><svg t="1673202121514" class="icon" viewBox="0 0 1024 1024" version="1.1" xmlns="http://www.w3.org/2000/svg" p-id="3659" xmlns:xlink="http://www.w3.org/1999/xlink" width="200" height="200"><path d="M643.072 368.64 380.928 368.64C368.64 368.64 360.448 376.832 360.448 385.024l0 262.144c0 12.288 8.192 20.48 20.48 20.48l262.144 0c12.288 0 20.48-8.192 20.48-20.48L663.552 385.024C663.552 376.832 655.36 368.64 643.072 368.64zM626.688 630.784 397.312 630.784 397.312 405.504l225.28 0L622.592 630.784z" p-id="3660"></path><path d="M512 102.4C282.624 102.4 98.304 290.816 98.304 520.192s184.32 413.696 413.696 413.696 413.696-184.32 413.696-413.696S741.376 102.4 512 102.4zM512 897.024c-208.896 0-376.832-167.936-376.832-376.832 0-208.896 167.936-376.832 376.832-376.832s376.832 167.936 376.832 376.832C888.832 724.992 720.896 897.024 512 897.024z" p-id="3661"></path></svg>