<?xml version="1.0" standalone="no"?><!DOCTYPE svg PUBLIC "-//W3C//DTD SVG 1.1//EN" "http://www.w3.org/Graphics/SVG/1.1/DTD/svg11.dtd"><svg t="1703564658938" class="icon" viewBox="0 0 1024 1024" version="1.1" xmlns="http://www.w3.org/2000/svg" p-id="5337" xmlns:xlink="http://www.w3.org/1999/xlink" width="200" height="200"><path d="M385.568153 1011.634709c-6.637472 0-12.775134-2.04922-18.382999-5.61786-8.686692-6.127666-13.28494-15.833969-13.28494-26.050079V861.441912h-59.767237v115.955837c0 10.216109-5.108055 19.922412-13.284941 26.060075-8.686692 6.127666-19.412607 7.66708-29.118909 4.088443-88.896143-32.187741-148.153574-115.456027-148.153575-207.920812 0-78.160232 41.374242-150.192798 107.788948-189.018011V399.117992c-65.9049-38.825213-107.788948-110.857779-107.788948-189.018011 0-90.92537 60.786849-176.752682 147.633773-207.401009 9.706303-3.578637 20.432218-2.039223 29.118909 4.088443 8.686692 6.127666 13.28494 15.833969 13.284941 26.060075v118.514862h60.277043V32.837494c0-10.226105 5.108055-19.922412 13.28494-26.060075 8.686692-6.127666 19.412607-7.66708 29.11891-4.088443 88.376341 31.667939 147.633772 114.946222 147.633772 207.401009 0 77.14062-41.884048 150.192798-107.788948 191.067231v212.009254c65.9049 38.315407 107.788948 110.347973 107.788948 189.018011 0 92.464784-59.257431 176.242876-147.633772 207.411005-3.068831 1.529418-6.647468 2.039223-10.725915 2.039223zM261.93524 797.076426h123.622917c17.883189 0 32.187741 14.304552 32.187741 32.187741v98.082644c38.825213-29.11891 62.836068-74.581595 62.836068-124.652525 0-59.767237-35.756382-115.965833-88.886147-140.486494-11.235721-5.108055-18.392995-16.343775-18.392995-29.11891V382.774217c0-12.265329 6.637472-22.991244 17.883189-28.609104 53.639571-27.589492 88.886147-84.297894 88.886147-144.065132 0-50.57074-23.501049-95.523619-62.836068-124.642528v98.082644c0 17.883189-14.304552 32.187741-32.187741 32.187741H261.93524c-17.883189 0-32.187741-14.304552-32.187741-32.187741v-97.063033c-37.805601 29.11891-62.326262 75.091401-62.326263 123.622917 0 59.767237 35.756382 115.965833 88.886147 140.486495 11.235721 5.108055 18.392995 16.343775 18.392995 29.11891v250.314665c0 12.265329-7.157274 24.010855-18.392995 29.11891-53.129765 24.520661-88.886147 80.709261-88.886147 140.486494 0 50.57074 23.501049 95.533615 62.836068 124.652525v-95.013813c0.009996-17.883189 14.314548-32.187741 31.677936-32.187741z m573.181698 225.284198H673.688419c-47.511905 0-85.827312-38.315407-85.827311-85.827311V586.596589c0-45.462685 35.756382-82.758481 80.719257-85.827312V298.486319l-50.57074-100.64167c-4.088443-8.176886-4.598249-17.883189-1.019611-26.050079l53.63957-134.358828c4.598249-12.255332 16.343775-19.922412 29.628716-19.922412h107.788948c13.28494 0 25.030467 8.176886 29.628715 19.922412l53.639571 134.358828c3.578637 8.686692 3.068831 17.883189-1.019612 26.050079l-50.570739 100.64167v202.80276c44.952879 2.549029 80.709261 39.844825 80.709261 85.827312v349.936724c0.509806 46.992103-37.805601 85.30751-85.317506 85.307509zM673.688419 565.144759c-11.755523 0-21.971632 10.216109-21.971631 21.971632v349.936724c0 12.255332 9.706303 21.961636 21.971631 21.961635h161.428519c11.755523 0 21.971632-10.216109 21.971632-21.961635V587.116391c0-11.755523-10.216109-21.971632-21.971632-21.971632h-27.06969c-17.883189 0-32.187741-14.304552-32.187741-31.667939V290.819239c0-5.108055 1.019612-9.706303 3.578637-14.304552l47.501908-95.02381-40.35463-101.151475H722.219936l-40.354631 101.151475 47.511905 95.02381c2.039223 4.598249 3.578637 9.196497 3.578637 14.304552v242.147776c0 17.883189-14.304552 31.667939-32.187741 31.667938h-27.079687v0.509806z m0 0" fill="#ffffff" p-id="5338"></path></svg>