<?xml version="1.0" standalone="no"?><!DOCTYPE svg PUBLIC "-//W3C//DTD SVG 1.1//EN" "http://www.w3.org/Graphics/SVG/1.1/DTD/svg11.dtd"><svg t="1670476256070" class="icon" viewBox="0 0 1024 1024" version="1.1" xmlns="http://www.w3.org/2000/svg" p-id="2675" xmlns:xlink="http://www.w3.org/1999/xlink" width="200" height="200"><path d="M886.67 256.13H137.35c-5.2 0-9.41-4.21-9.41-9.41v-45.18c0-5.2 4.21-9.41 9.41-9.41h749.32c5.2 0 9.41 4.21 9.41 9.41v45.18c0.01 5.19-4.21 9.41-9.41 9.41zM886.67 545.22H137.35c-5.2 0-9.41-4.21-9.41-9.41v-45.18c0-5.2 4.21-9.41 9.41-9.41h749.32c5.2 0 9.41 4.21 9.41 9.41v45.18c0.01 5.2-4.21 9.41-9.41 9.41zM886.67 832.32H137.35c-5.2 0-9.41-4.21-9.41-9.41v-45.18c0-5.2 4.21-9.41 9.41-9.41h749.32c5.2 0 9.41 4.21 9.41 9.41v45.18c0.01 5.2-4.21 9.41-9.41 9.41z" fill="#333333" p-id="2676"></path></svg>