<?xml version="1.0" standalone="no"?><!DOCTYPE svg PUBLIC "-//W3C//DTD SVG 1.1//EN" "http://www.w3.org/Graphics/SVG/1.1/DTD/svg11.dtd"><svg t="1670299051746" class="icon" viewBox="0 0 1024 1024" version="1.1" xmlns="http://www.w3.org/2000/svg" p-id="2719" xmlns:xlink="http://www.w3.org/1999/xlink" width="200" height="200"><path d="M456.238 231.742c0-31.57-26.389-57.162-57.959-57.162h-233.444v217.355c0 31.57 25.592 57.162 57.162 57.162h234.24v-217.355z" p-id="2720"></path><path d="M456.238 811.745c0 31.57-26.389 57.162-57.959 57.162h-233.444v-217.355c0-31.57 25.592-57.162 57.162-57.162h234.24v217.355z" p-id="2721"></path><path d="M567.762 231.742c0-31.57 26.389-57.162 57.959-57.162h233.444v217.355c0 31.57-25.592 57.162-57.162 57.162h-234.24v-217.355z" p-id="2722"></path><path d="M567.762 811.745c0 31.57 26.389 57.162 57.959 57.162h233.444v-217.355c0-31.57-25.592-57.162-57.162-57.162h-234.24v217.355z" p-id="2723"></path></svg>