<?xml version="1.0" standalone="no"?><!DOCTYPE svg PUBLIC "-//W3C//DTD SVG 1.1//EN" "http://www.w3.org/Graphics/SVG/1.1/DTD/svg11.dtd"><svg t="1670299555070" class="icon" viewBox="0 0 1024 1024" version="1.1" xmlns="http://www.w3.org/2000/svg" p-id="4672" xmlns:xlink="http://www.w3.org/1999/xlink" width="200" height="200"><path d="M115 959h794a50 50 0 0 0 50-50V115a50 50 0 0 0-50-50H115a50 50 0 0 0-50 50v794a50 50 0 0 0 50 50z m10-819a15 15 0 0 1 15-15h744a15 15 0 0 1 15 15v744a15 15 0 0 1-15 15H140a15 15 0 0 1-15-15V140z m327.008 76a30 30 0 0 0-30-30h-206a30 30 0 0 0-30 30v206a30 30 0 0 0 60 0V246h176a30 30 0 0 0 30-30z m119.984 602a30 30 0 0 0 30 30h206a30 30 0 0 0 30-30V612a30 30 0 0 0-60 0v176h-176a30 30 0 0 0-30 30z m0-602a30 30 0 0 1 30-30h206a30 30 0 0 1 30 30v206a30 30 0 1 1-60 0V246h-176a30 30 0 0 1-30-30zM452.008 818a30 30 0 0 1-30 30h-206a30 30 0 0 1-30-30V612a30 30 0 0 1 60 0v176h176a30 30 0 0 1 30 30z" fill="#333333" p-id="4673"></path></svg>