<svg width="857" height="703" xmlns="http://www.w3.org/2000/svg" xmlns:xlink="http://www.w3.org/1999/xlink" version="1.1" baseProfile="full" viewBox="0 0 857 703">
<rect width="857" height="703" x="0" y="0" id="0" fill="none" fill-opacity="1"></rect>
<path d="M85.5 60L85.5 633" fill="none" stroke="#E0E6F1"></path>
<path d="M223.5 60L223.5 633" fill="none" stroke="#E0E6F1"></path>
<path d="M360.5 60L360.5 633" fill="none" stroke="#E0E6F1"></path>
<path d="M497.5 60L497.5 633" fill="none" stroke="#E0E6F1"></path>
<path d="M634.5 60L634.5 633" fill="none" stroke="#E0E6F1"></path>
<path d="M771.5 60L771.5 633" fill="none" stroke="#E0E6F1"></path>
<path d="M85.5 633L85.5 60" fill="none" stroke="#6E7079" stroke-linecap="round"></path>
<path d="M85.7 633.5L80.7 633.5" fill="none" stroke="#6E7079"></path>
<path d="M85.7 561.5L80.7 561.5" fill="none" stroke="#6E7079"></path>
<path d="M85.7 490.5L80.7 490.5" fill="none" stroke="#6E7079"></path>
<path d="M85.7 418.5L80.7 418.5" fill="none" stroke="#6E7079"></path>
<path d="M85.7 346.5L80.7 346.5" fill="none" stroke="#6E7079"></path>
<path d="M85.7 275.5L80.7 275.5" fill="none" stroke="#6E7079"></path>
<path d="M85.7 203.5L80.7 203.5" fill="none" stroke="#6E7079"></path>
<path d="M85.7 131.5L80.7 131.5" fill="none" stroke="#6E7079"></path>
<path d="M85.7 60.5L80.7 60.5" fill="none" stroke="#6E7079"></path>
<text dominant-baseline="central" text-anchor="end" style="font-size:16px;font-family:sans-serif;" transform="translate(77.7 597.1875)" fill="white">机器故障</text>
<text dominant-baseline="central" text-anchor="end" style="font-size:16px;font-family:sans-serif;" transform="translate(77.7 525.5625)" fill="white">电路故障</text>
<text dominant-baseline="central" text-anchor="end" style="font-size:16px;font-family:sans-serif;" transform="translate(77.7 453.9375)" fill="white">环境因素</text>
<text dominant-baseline="central" text-anchor="end" style="font-size:16px;font-family:sans-serif;" transform="translate(77.7 382.3125)" fill="white">人为因素</text>
<text dominant-baseline="central" text-anchor="end" style="font-size:16px;font-family:sans-serif;" transform="translate(77.7 310.6875)" fill="white">时间因素</text>
<text dominant-baseline="central" text-anchor="end" style="font-size:16px;font-family:sans-serif;" transform="translate(77.7 239.0625)" fill="white">技术难点</text>
<text dominant-baseline="central" text-anchor="end" style="font-size:16px;font-family:sans-serif;" transform="translate(77.7 167.4375)" fill="white">管理因素</text>
<text dominant-baseline="central" text-anchor="end" style="font-size:16px;font-family:sans-serif;" transform="translate(77.7 95.8125)" fill="white">其他原因</text>
<text dominant-baseline="central" text-anchor="middle" style="font-size:12px;font-family:sans-serif;" y="6" transform="translate(85.7 641)" fill="white">0</text>
<text dominant-baseline="central" text-anchor="middle" style="font-size:12px;font-family:sans-serif;" y="6" transform="translate(222.82 641)" fill="white">5</text>
<text dominant-baseline="central" text-anchor="middle" style="font-size:12px;font-family:sans-serif;" y="6" transform="translate(359.94 641)" fill="white">10</text>
<text dominant-baseline="central" text-anchor="middle" style="font-size:12px;font-family:sans-serif;" y="6" transform="translate(497.06 641)" fill="white">15</text>
<text dominant-baseline="central" text-anchor="middle" style="font-size:12px;font-family:sans-serif;" y="6" transform="translate(634.18 641)" fill="white">20</text>
<text dominant-baseline="central" text-anchor="middle" style="font-size:12px;font-family:sans-serif;" y="6" transform="translate(771.3 641)" fill="white">25</text>
<path d="M85.7 572.4769l164.544 0l0 49.4212l-164.544 0Z" fill="rgb(20,99,217)"></path>
<path d="M85.7 500.8519l219.392 0l0 49.4213l-219.392 0Z" fill="rgb(169,0,0)"></path>
<path d="M85.7 429.2269l274.24 0l0 49.4212l-274.24 0Z" fill="rgb(36,175,95)"></path>
<path d="M85.7 357.6019l383.936 0l0 49.4212l-383.936 0Z" fill="rgb(244,208,63)"></path>
<path d="M85.7 285.9769l383.936 0l0 49.4212l-383.936 0Z" fill="rgb(179,182,183)"></path>
<path d="M85.7 214.3519l438.784 0l0 49.4212l-438.784 0Z" fill="rgb(44,62,80)"></path>
<path d="M85.7 142.7269l493.632 0l0 49.4212l-493.632 0Z" fill="#572257"></path>
<path d="M85.7 71.1019l603.328 0l0 49.4213l-603.328 0Z" fill="rgb(174,214,241)"></path>
</svg>