<svg width="857" height="703" xmlns="http://www.w3.org/2000/svg" xmlns:xlink="http://www.w3.org/1999/xlink" version="1.1" baseProfile="full" viewBox="0 0 857 703">
<rect width="857" height="703" x="0" y="0" id="0" fill="none" fill-opacity="1"></rect>
<path d="M85.5 60L85.5 633" fill="none" stroke="#E0E6F1"></path>
<path d="M177.5 60L177.5 633" fill="none" stroke="#E0E6F1"></path>
<path d="M314.5 60L314.5 633" fill="none" stroke="#E0E6F1"></path>
<path d="M451.5 60L451.5 633" fill="none" stroke="#E0E6F1"></path>
<path d="M588.5 60L588.5 633" fill="none" stroke="#E0E6F1"></path>
<path d="M725.5 60L725.5 633" fill="none" stroke="#E0E6F1"></path>
<path d="M771.5 60L771.5 633" fill="none" stroke="#E0E6F1"></path>
<path d="M85.5 633L85.5 60" fill="none" stroke="#6E7079" stroke-linecap="round"></path>
<path d="M85.7 633.5L80.7 633.5" fill="none" stroke="#6E7079"></path>
<path d="M85.7 597.5L80.7 597.5" fill="none" stroke="#6E7079"></path>
<path d="M85.7 561.5L80.7 561.5" fill="none" stroke="#6E7079"></path>
<path d="M85.7 525.5L80.7 525.5" fill="none" stroke="#6E7079"></path>
<path d="M85.7 490.5L80.7 490.5" fill="none" stroke="#6E7079"></path>
<path d="M85.7 454.5L80.7 454.5" fill="none" stroke="#6E7079"></path>
<path d="M85.7 418.5L80.7 418.5" fill="none" stroke="#6E7079"></path>
<path d="M85.7 382.5L80.7 382.5" fill="none" stroke="#6E7079"></path>
<path d="M85.7 346.5L80.7 346.5" fill="none" stroke="#6E7079"></path>
<path d="M85.7 310.5L80.7 310.5" fill="none" stroke="#6E7079"></path>
<path d="M85.7 275.5L80.7 275.5" fill="none" stroke="#6E7079"></path>
<path d="M85.7 239.5L80.7 239.5" fill="none" stroke="#6E7079"></path>
<path d="M85.7 203.5L80.7 203.5" fill="none" stroke="#6E7079"></path>
<path d="M85.7 167.5L80.7 167.5" fill="none" stroke="#6E7079"></path>
<path d="M85.7 131.5L80.7 131.5" fill="none" stroke="#6E7079"></path>
<path d="M85.7 96.5L80.7 96.5" fill="none" stroke="#6E7079"></path>
<path d="M85.7 60.5L80.7 60.5" fill="none" stroke="#6E7079"></path>
<text dominant-baseline="central" text-anchor="end" style="font-size:16px;font-family:sans-serif;" transform="translate(77.7 615.0938)" fill="white">队伍1</text>
<text dominant-baseline="central" text-anchor="end" style="font-size:16px;font-family:sans-serif;" transform="translate(77.7 579.2813)" fill="white">队伍2</text>
<text dominant-baseline="central" text-anchor="end" style="font-size:16px;font-family:sans-serif;" transform="translate(77.7 543.4688)" fill="white">队伍3</text>
<text dominant-baseline="central" text-anchor="end" style="font-size:16px;font-family:sans-serif;" transform="translate(77.7 507.6563)" fill="white">队伍4</text>
<text dominant-baseline="central" text-anchor="end" style="font-size:16px;font-family:sans-serif;" transform="translate(77.7 471.8438)" fill="white">队伍5</text>
<text dominant-baseline="central" text-anchor="end" style="font-size:16px;font-family:sans-serif;" transform="translate(77.7 436.0313)" fill="white">队伍6</text>
<text dominant-baseline="central" text-anchor="end" style="font-size:16px;font-family:sans-serif;" transform="translate(77.7 400.2188)" fill="white">队伍7</text>
<text dominant-baseline="central" text-anchor="end" style="font-size:16px;font-family:sans-serif;" transform="translate(77.7 364.4063)" fill="white">队伍8</text>
<text dominant-baseline="central" text-anchor="end" style="font-size:16px;font-family:sans-serif;" transform="translate(77.7 328.5938)" fill="white">队伍9</text>
<text dominant-baseline="central" text-anchor="end" style="font-size:16px;font-family:sans-serif;" transform="translate(77.7 292.7813)" fill="white">队伍10</text>
<text dominant-baseline="central" text-anchor="end" style="font-size:16px;font-family:sans-serif;" transform="translate(77.7 256.9688)" fill="white">队伍11</text>
<text dominant-baseline="central" text-anchor="end" style="font-size:16px;font-family:sans-serif;" transform="translate(77.7 221.1563)" fill="white">队伍12</text>
<text dominant-baseline="central" text-anchor="end" style="font-size:16px;font-family:sans-serif;" transform="translate(77.7 185.3438)" fill="white">队伍13</text>
<text dominant-baseline="central" text-anchor="end" style="font-size:16px;font-family:sans-serif;" transform="translate(77.7 149.5313)" fill="white">队伍14</text>
<text dominant-baseline="central" text-anchor="end" style="font-size:16px;font-family:sans-serif;" transform="translate(77.7 113.7188)" fill="white">队伍15</text>
<text dominant-baseline="central" text-anchor="end" style="font-size:16px;font-family:sans-serif;" transform="translate(77.7 77.9063)" fill="white">队伍16</text>
<text dominant-baseline="central" text-anchor="middle" style="font-size:12px;font-family:sans-serif;" y="6" transform="translate(85.7 641)" fill="white">85</text>
<text dominant-baseline="central" text-anchor="middle" style="font-size:12px;font-family:sans-serif;" y="6" transform="translate(177.1133 641)" fill="white">87</text>
<text dominant-baseline="central" text-anchor="middle" style="font-size:12px;font-family:sans-serif;" y="6" transform="translate(314.2333 641)" fill="white">90</text>
<text dominant-baseline="central" text-anchor="middle" style="font-size:12px;font-family:sans-serif;" y="6" transform="translate(451.3533 641)" fill="white">93</text>
<text dominant-baseline="central" text-anchor="middle" style="font-size:12px;font-family:sans-serif;" y="6" transform="translate(588.4733 641)" fill="white">96</text>
<text dominant-baseline="central" text-anchor="middle" style="font-size:12px;font-family:sans-serif;" y="6" transform="translate(725.5933 641)" fill="white">99</text>
<text dominant-baseline="central" text-anchor="middle" style="font-size:12px;font-family:sans-serif;" y="6" transform="translate(771.3 641)" fill="white">100</text>
<path d="M85.7 459.4884l319.9467 0l0 24.7106l-319.9467 0Z" fill="#1463D9"></path>
<path d="M85.7 423.6759l365.6533 0l0 24.7106l-365.6533 0Z" fill="#1463D9"></path>
<path d="M85.7 387.8634l365.6533 0l0 24.7106l-365.6533 0Z" fill="#1463D9"></path>
<path d="M85.7 352.0509l411.36 0l0 24.7106l-411.36 0Z" fill="#1463D9"></path>
<path d="M85.7 316.2384l411.36 0l0 24.7106l-411.36 0Z" fill="#1463D9"></path>
<path d="M85.7 280.4259l457.0667 0l0 24.7106l-457.0667 0Z" fill="#1463D9"></path>
<path d="M85.7 244.6134l502.7733 0l0 24.7106l-502.7733 0Z" fill="#1463D9"></path>
<path d="M85.7 208.8009l594.1867 0l0 24.7106l-594.1867 0Z" fill="#1463D9"></path>
<path d="M85.7 172.9884l594.1867 0l0 24.7106l-594.1867 0Z" fill="#1463D9"></path>
<path d="M85.7 137.1759l594.1867 0l0 24.7106l-594.1867 0Z" fill="#1463D9"></path>
<path d="M85.7 101.3634l639.8933 0l0 24.7106l-639.8933 0Z" fill="#1463D9"></path>
<path d="M85.7 65.5509l685.6 0l0 24.7106l-685.6 0Z" fill="#1463D9"></path>
<path d="M85.7 602.7384l137.12 0l0 24.7106l-137.12 0Z" fill="#1463D9"></path>
<path d="M85.7 566.9259l228.5333 0l0 24.7106l-228.5333 0Z" fill="#1463D9"></path>
<path d="M85.7 531.1134l228.5333 0l0 24.7106l-228.5333 0Z" fill="#1463D9"></path>
<path d="M85.7 495.3009l228.5333 0l0 24.7106l-228.5333 0Z" fill="#1463D9"></path>
</svg>